Patient4_TMGait_0pt7_02_left_39_GRF.mot
version=1
nRows=32
nColumns=19
inDegrees=no
endheader
time	F1x	F1y	F1z	M1x	M1y	M1z	F2x	F2y	F2z	M2x	M2y	M2z	EC1x	EC1y	EC1z	EC2x	EC2y	EC2z
44.62	39.5175	-22.1491	5.9124	6.2261	1.5162	-43.6243	-42.999	754.0898	-101.0185	277.9653	116.5183	801.5338	-0.0592	0.0182	-0.0073	-0.0462	0.0165	0.9585
44.6319	25.8588	-11.8699	3.6432	3.1309	1.2178	-25.8859	-43.6659	750.9301	-91.9473	275.3331	109.074	795.6748	-0.0592	0.0182	-0.0073	-0.0462	0.0165	0.9585
44.6439	14.375	-3.2327	1.8294	0.51987	0.90033	-10.9002	-43.5252	747.7646	-84.0116	272.9514	102.1407	788.6892	-0.0592	0.0182	-0.0073	-0.0462	0.0165	0.9585
44.6558	5.6091	3.3599	0.47979	-1.4788	0.63419	0.61102	-42.532	744.6458	-77.4953	270.918	95.8997	780.7234	-0.0592	0.0182	-0.0073	-0.0462	0.0165	0.9585
44.6677	-0.37855	7.9189	-0.38685	-2.8687	0.40992	8.5709	-40.7935	741.63	-72.3404	269.2479	90.3404	772.0334	-0.0592	0.0182	-0.0073	-0.0462	0.0165	0.9585
44.6796	-4.1106	10.7728	-0.89584	-3.7438	0.24175	13.5782	-38.3839	738.8948	-68.2428	267.947	85.2594	762.9866	-0.0592	0.0182	-0.0073	-0.0462	0.0165	0.9585
44.6916	-6.0271	12.2398	-1.0973	-4.1991	0.10154	16.1788	-35.4583	736.6175	-64.9431	266.9894	80.5348	753.9828	-0.0592	0.0182	-0.0073	-0.0462	0.0165	0.9585
44.7035	-6.7746	12.7108	-1.1172	-4.343	-0.017024	17.1065	-32.0891	734.7293	-62.1737	266.2609	76.0117	745.1217	-0.0592	0.0182	-0.0073	-0.0462	0.0165	0.9585
44.7154	-6.7349	12.383	-1.0069	-4.2313	-0.13035	16.7509	-28.3181	732.9241	-59.8695	265.5559	71.6943	736.2616	-0.0592	0.0182	-0.0073	-0.0462	0.0165	0.9585
44.7274	-6.3338	11.4652	-0.84126	-3.9152	-0.24649	15.5545	-24.0969	730.7178	-57.9693	264.625	67.5495	727.0293	-0.0592	0.0182	-0.0073	-0.0462	0.0165	0.9585
44.7393	-5.7659	9.9893	-0.64894	-3.3999	-0.36429	13.6223	-19.4198	727.6272	-56.5442	263.2351	63.6625	717.0388	-0.0592	0.0182	-0.0073	-0.0462	0.0165	0.9585
44.7512	-5.2416	7.9997	-0.45647	-2.6886	-0.49293	11.11	-14.225	723.3666	-55.6226	261.2502	60.0589	706.048	-0.0592	0.0182	-0.0073	-0.0462	0.0165	0.9585
44.7631	-4.7871	5.5055	-0.29009	-1.782	-0.59905	8.0369	-8.5537	717.9385	-55.2941	258.6654	56.8531	694.0885	-0.0592	0.0182	-0.0073	-0.0462	0.0165	0.9585
44.7751	-4.462	2.5956	-0.16275	-0.7086	-0.67576	4.5495	-2.4818	711.6904	-55.5728	255.6268	54.103	681.4997	-0.0592	0.0182	-0.0073	-0.0462	0.0165	0.9585
44.787	-4.2187	-0.4839	-0.13033	0.43359	-0.64907	0.90632	3.8523	705.2428	-56.426	252.3987	51.8516	668.8742	-0.0592	0.0182	-0.0073	-0.0462	0.0165	0.9585
44.7989	-4.0169	-3.2246	-0.22713	1.4481	-0.46884	-2.3035	10.2063	699.3672	-57.709	249.3235	50.0595	656.9255	-0.0592	0.0182	-0.0073	-0.0462	0.0165	0.9585
44.8109	-3.8043	-4.7578	-0.54676	1.9945	-0.020407	-4.1195	16.3638	694.9208	-59.2642	246.7752	48.6719	646.4195	-0.0592	0.0182	-0.0073	-0.0462	0.0165	0.9585
44.8228	-3.51	-3.7513	-1.1392	1.5577	0.77564	-3.0543	22.0528	692.5759	-60.9205	245.0599	47.623	637.9698	-0.0592	0.0182	-0.0073	-0.0462	0.0165	0.9585
44.8347	-3.0885	1.6544	-2.0982	-0.57694	2.0364	2.9754	27.1116	692.6012	-62.5003	244.3285	46.7992	631.8073	-0.0592	0.0182	-0.0073	-0.0462	0.0165	0.9585
44.8466	-2.4598	13.7753	-3.4533	-5.2921	3.8164	16.5284	31.4429	694.7439	-63.8355	244.525	46.0704	627.7266	-0.0592	0.0182	-0.0073	-0.0462	0.0165	0.9585
44.8586	-1.6304	35.2104	-5.207	-13.5695	6.1106	40.5276	35.0867	698.0094	-64.7477	245.3178	45.2507	624.8344	-0.0592	0.0182	-0.0073	-0.0462	0.0165	0.9585
44.8705	-0.56558	68.33	-7.2194	-26.2966	8.7597	77.6051	38.1136	700.799	-65.1103	246.1311	44.1869	621.774	-0.0592	0.0182	-0.0073	-0.0462	0.0165	0.9585
44.8824	0.57894	114.5276	-9.2	-43.9667	11.3791	129.3486	40.6604	700.9665	-64.8246	246.1837	42.726	616.6875	-0.0592	0.0182	-0.0073	-0.0462	0.0165	0.9585
44.8944	1.6548	172.9203	-10.599	-66.1869	13.2761	194.7467	42.7392	696.2318	-63.8493	244.6307	40.8055	607.6938	-0.0592	0.0182	-0.0073	-0.0462	0.0165	0.9585
44.9063	2.2157	238.7442	-10.5452	-91.0592	13.304	268.529	44.3274	684.5429	-62.139	240.7101	38.3863	593.098	-0.0592	0.0182	-0.0073	-0.0462	0.0165	0.9585
44.9182	1.3785	301.8258	-7.7448	-114.6441	9.7024	339.245	45.1985	664.575	-59.6722	233.9191	35.5357	571.8872	-0.0592	0.0182	-0.0073	-0.0462	0.0165	0.9585
44.9301	-1.7752	350.6406	-0.92457	-132.6213	0.9401	393.9329	45.1575	636.0481	-56.4849	224.1397	32.3951	543.8833	-0.0592	0.0182	-0.0073	-0.0462	0.0165	0.9585
44.9421	-6.8652	384.4396	8.3386	-144.7454	-11.1508	431.5884	44.0923	600.1182	-52.6865	211.7446	29.1542	510.1472	-0.0592	0.0182	-0.0073	-0.0462	0.0165	0.9585
44.954	-14.0513	409.7211	18.3727	-153.5291	-24.7965	459.556	42.1492	558.8028	-48.3932	197.4207	25.9016	472.4128	-0.0592	0.0182	-0.0073	-0.0462	0.0165	0.9585
44.9659	-22.4051	432.7439	27.9467	-161.4331	-38.2826	484.7177	39.6864	514.3073	-43.7723	181.9334	22.6845	432.516	-0.0592	0.0182	-0.0073	-0.0462	0.0165	0.9585
44.9779	-30.8105	457.0659	35.4288	-169.9066	-49.4572	511.087	37.0411	468.6773	-38.7775	166.0107	19.3466	392.1656	-0.0592	0.0182	-0.0073	-0.0462	0.0165	0.9585
44.9898	-38.1156	483.5033	40.5053	-179.3097	-57.5076	539.4507	34.5149	423.6158	-33.4533	150.2633	15.8195	352.7403	-0.0592	0.0182	-0.0073	-0.0462	0.0165	0.9585
